<svg width="239" height="239" viewBox="0 0 239 239" fill="none" xmlns="http://www.w3.org/2000/svg">
<circle cx="119" cy="119" r="108" fill="#F4EDE8"/>
<path d="M144.388 209.236L159.346 203.676C164.25 201.853 166.835 197.543 166.105 192.326L163.782 173.56C166.196 171.546 168.417 169.511 170.444 167.455L189.029 171.153C193.976 172.198 198.647 169.997 200.753 165.4L207.378 150.936C209.484 146.339 208.121 141.171 203.904 138.086L189.108 126.561C189.341 123.684 189.431 120.673 189.307 117.835L205.198 107.277C209.626 104.422 211.12 99.6801 209.297 94.7757L203.828 80.0625C202.035 75.2399 197.777 72.5432 192.559 73.2731L173.763 75.5149C171.8 72.9882 169.714 70.8796 167.913 69.0372L171.468 50.3187C172.534 45.1777 170.476 40.6401 165.685 38.5134L151.139 31.9186C146.552 30.0885 142.007 31.1266 138.689 34.9647L126.846 50.1583C124.05 49.895 121.04 49.8046 117.896 49.8567L107.225 33.9138C104.37 29.4861 99.5983 27.9107 94.6939 29.7336L79.7355 35.2934C74.7493 37.1467 72.1648 41.4565 72.8947 46.6741L75.279 65.6038C72.834 67.5359 70.5316 69.6011 68.5351 71.7387L49.7558 68.02C44.7364 67.2807 40.6682 69.351 38.3383 73.8453L31.6313 88.3393C29.3925 93.0788 30.7973 97.8595 34.9625 101.056L49.8805 112.908C49.7199 115.48 49.5991 118.409 49.6816 121.634L33.9839 132.214C29.5562 135.069 28.0929 139.892 29.8854 144.715L35.3541 159.428C37.177 164.332 41.4051 166.947 46.6227 166.217L65.5524 163.833C67.3116 166.063 69.3464 168.284 71.4022 170.311L67.7255 188.702C66.5471 193.792 68.8909 198.596 73.5696 200.671L87.9515 207.327C92.5485 209.432 97.5231 208.048 100.668 203.995L112.245 189.087C115.122 189.32 118.133 189.41 121.277 189.358L131.774 205.086C134.629 209.514 139.402 211.089 144.388 209.236ZM130.133 148.109C114.439 153.942 96.8059 145.797 90.9423 130.021C85.1394 114.409 93.2026 96.806 108.897 90.9727C124.673 85.1091 142.276 93.1723 148.078 108.785C153.942 124.56 145.909 142.245 130.133 148.109Z" fill="#2C1800"/>
<circle cx="119" cy="119" r="60" fill="#B77F41"/>
<circle cx="119.597" cy="118.814" r="27" transform="rotate(23.5217 119.597 118.814)" fill="#2C1800"/>
<path d="M85.7572 146.697C86.4242 147.507 87.1318 148.227 87.895 149.015L85.821 153.894C85.2298 155.06 85.5349 156.338 86.5334 157.272C87.5105 158.11 88.8197 158.165 89.9583 157.454L94.5061 154.673C96.2231 155.922 98.1179 156.967 99.9913 157.917L99.7312 163.115C99.5956 164.416 100.299 165.479 101.618 166.035C102.827 166.457 104.029 166.033 104.918 165.018L108.196 160.904C110.238 161.432 112.356 161.841 114.521 162.097L115.981 167.012C116.376 168.329 117.366 169.043 118.833 169.081C120.053 169.097 121.164 168.353 121.609 167.08L123.318 162.106C125.404 161.918 127.515 161.482 129.64 160.922L132.769 165.142C133.507 166.178 134.811 166.576 136.048 166.125C137.285 165.673 138 164.518 137.977 163.234L137.927 158.008C139.836 157.117 141.73 156.067 143.554 154.793L147.927 157.593C149.075 158.29 150.363 158.249 151.39 157.403C152.418 156.558 152.705 155.302 152.242 154.041L150.335 149.211C151.936 147.666 153.267 146.004 154.571 144.308L159.69 145.361C160.911 145.658 162.12 145.173 162.829 144.08C163.544 142.925 163.404 141.568 162.53 140.645L159.058 136.707C159.981 134.757 160.781 132.797 161.4 130.758L166.644 130.009C167.883 129.839 168.855 128.926 169.074 127.726C169.318 126.279 168.808 125.17 167.591 124.529L163.055 122.09C163.213 119.978 163.253 117.793 163.094 115.715L167.761 113.289C168.962 112.584 169.608 111.485 169.365 110.213C169.101 108.845 168.226 107.922 166.889 107.833L161.773 107.061C161.235 105.012 160.505 103.008 159.644 101.055L163.178 97.1827C164.095 96.2019 164.292 94.9066 163.692 93.7584C162.967 92.5991 161.8 92.0878 160.582 92.3537L155.362 93.4796C154.735 92.5792 154.13 91.7746 153.464 90.9644C152.741 90.0866 152.068 89.3384 151.304 88.5508L153.413 83.6439C153.935 82.534 153.63 81.256 152.598 80.3504C151.62 79.5124 150.311 79.4574 149.173 80.168L144.693 82.8924C142.97 81.706 141.144 80.6041 139.208 79.6487L139.462 74.5128C139.57 73.1781 138.866 72.1145 137.575 71.5921C136.4 71.1428 135.17 71.5326 134.247 72.5753L130.97 76.6894C128.961 76.1339 126.809 75.7532 124.706 75.5019L123.184 70.5818C122.817 69.2982 121.799 68.5503 120.36 68.5461C119.112 68.4967 118.029 69.2749 117.624 70.4578L115.91 75.4939C113.789 75.71 111.712 76.1175 109.594 76.6152L106.424 72.4851C105.659 71.4159 104.354 71.0174 103.111 71.5311C101.874 71.9829 101.137 73.0423 101.222 74.3317L101.3 79.5912C99.3568 80.511 97.4693 81.4984 95.6736 82.8066L91.3006 80.0067C90.1244 79.2758 88.8986 79.3221 87.8369 80.196C86.8095 81.0417 86.4942 82.264 86.9854 83.5587L88.8927 88.3884C87.2637 89.8992 85.8977 91.5899 84.6559 93.2918L79.5372 92.2383C78.2881 91.9073 77.0726 92.4547 76.3638 93.5479C75.6207 94.6693 75.761 96.0262 76.6632 96.9826L80.1756 100.831C79.218 102.808 78.4123 104.831 77.827 106.842L72.5553 107.557C71.2545 107.721 70.3105 108.668 70.1193 109.902C69.8467 111.315 70.385 112.458 71.5741 113.065L76.1442 115.476C75.9524 117.616 75.9468 119.773 76.0716 121.879L71.4042 124.305C70.2379 124.982 69.5911 126.081 69.7999 127.381C70.0643 128.749 70.9729 129.644 72.3035 129.794L77.4266 130.504C78.0264 132.559 78.6605 134.586 79.5214 136.539L75.9526 140.439C75.0364 141.42 74.8387 142.715 75.5012 143.869C76.1978 144.995 77.3933 145.54 78.6172 145.212L83.8378 144.086C84.4641 144.986 85.0347 145.819 85.7572 146.697ZM129.586 125.401C132.642 120.11 132.261 114.761 128.981 110.777C128.509 110.203 127.94 109.652 126.839 108.803L135.227 86.6073C139.733 88.7313 143.853 91.8525 147.271 96.0049C159.026 110.285 157.361 130.458 144.342 143.327L129.586 125.401ZM97.4454 91.9387C106.624 84.3836 118.09 81.9112 128.543 84.3503L120.177 106.641C116.717 106.487 113.831 107.447 111.571 109.308C109.413 111.084 107.997 113.552 107.437 117.128L84.005 120.559C83.7594 110 88.4042 99.381 97.4454 91.9387ZM116.023 114.647C118.352 112.731 121.717 113.189 123.495 115.349C125.357 117.611 125.105 120.934 122.776 122.851C120.516 124.712 117.104 124.405 115.242 122.143C113.463 119.983 113.763 116.508 116.023 114.647ZM91.8939 141.589C88.3925 137.335 86.0723 132.562 84.9011 127.58L108.147 124.133C108.775 125.315 109.262 126.046 109.735 126.62C113.042 130.637 118.258 131.95 124.141 129.883L138.897 147.809C123.765 158.113 103.649 155.869 91.8939 141.589Z" fill="#FFFEFE"/>
</svg>
