<svg width="48" height="48" viewBox="0 0 48 48" fill="none" xmlns="http://www.w3.org/2000/svg">
<rect width="48" height="48" rx="4" fill="#4E2B00"/>
<path d="M29.0075 31.9931C22.3524 31.9931 16.938 26.5752 16.9362 19.9182C16.938 18.2307 18.3117 16.8585 19.995 16.8585C20.1681 16.8585 20.3393 16.873 20.5033 16.9022C20.864 16.9623 21.2065 17.0844 21.5217 17.2685C21.5672 17.2958 21.5982 17.3396 21.6055 17.3906L22.3087 21.8244C22.3178 21.8754 22.3014 21.9282 22.2668 21.9665C21.8788 22.3966 21.3832 22.7064 20.8312 22.8613L20.5652 22.936L20.6654 23.1929C21.5727 25.5037 23.42 27.3497 25.7319 28.2609L25.9888 28.3629L26.0635 28.0969C26.2183 27.5447 26.528 27.049 26.958 26.6609C26.989 26.6317 27.0309 26.6171 27.0728 26.6171C27.0819 26.6171 27.091 26.6171 27.1019 26.619L31.5344 27.3224C31.5872 27.3315 31.6309 27.3607 31.6583 27.4062C31.8404 27.7215 31.9625 28.0659 32.0245 28.4267C32.0536 28.5871 32.0663 28.7566 32.0663 28.9333C32.0663 30.619 30.6945 31.9912 29.0075 31.9931Z" fill="#FDFDFD"/>
<path d="M40.8092 22.925C40.4503 18.8685 38.5921 15.1053 35.577 12.3299C32.5437 9.53806 28.6085 8 24.493 8C15.4605 8 8.11132 15.3514 8.11132 24.3866C8.11132 27.4189 8.94752 30.373 10.5307 32.9461L7 40.764L18.3044 39.5594C20.2701 40.3649 22.3506 40.7731 24.4912 40.7731C25.0542 40.7731 25.6317 40.744 26.211 40.6838C26.7211 40.6292 27.2367 40.549 27.7432 40.4469C35.3073 38.918 40.8292 32.2026 40.873 24.474V24.3866C40.873 23.8945 40.8511 23.4025 40.8074 22.9269L40.8092 22.925ZM18.7398 36.128L12.4855 36.7949L14.3529 32.6564L13.9794 32.1552C13.952 32.1188 13.9247 32.0823 13.8938 32.0404C12.2723 29.8008 11.4161 27.1547 11.4161 24.3884C11.4161 17.1755 17.2823 11.3076 24.493 11.3076C31.2483 11.3076 36.9743 16.5796 37.5263 23.3096C37.5555 23.6704 37.5718 24.033 37.5718 24.3902C37.5718 24.4923 37.57 24.5925 37.5682 24.7C37.4297 30.7338 33.2159 35.8583 27.3205 37.1631C26.8705 37.2633 26.4096 37.3398 25.9505 37.389C25.4732 37.4437 24.9831 37.471 24.4967 37.471C22.7642 37.471 21.0808 37.1357 19.4904 36.4724C19.3136 36.4013 19.1406 36.3248 18.9784 36.2464L18.7416 36.1316L18.7398 36.128Z" fill="#FDFDFD"/>
</svg>
