<svg width="48" height="48" viewBox="0 0 48 48" fill="none" xmlns="http://www.w3.org/2000/svg">
<rect width="48" height="48" fill="#B77F41"/>
<path fill-rule="evenodd" clip-rule="evenodd" d="M23.2357 9.07788C20.2499 9.60064 17.9104 11.7922 17.1594 14.7698C17.0342 15.2661 17.0115 15.5365 17.0146 16.4946C17.0179 17.4953 17.0388 17.7064 17.1899 18.2656C17.2842 18.6149 17.4378 19.066 17.5312 19.2681L17.7008 19.6358L17.7069 19.4018C17.7202 18.8996 18.1381 18.2916 18.644 18.0388C18.7412 17.9902 19.4824 17.7882 20.291 17.59C21.1916 17.3694 21.7749 17.1944 21.7965 17.1387C21.8159 17.0887 21.7241 16.8481 21.5926 16.604C21.1851 15.8482 21.1395 15.5951 21.1395 14.0855C21.1395 12.2015 21.2785 11.6132 21.8775 10.9615C22.4882 10.2971 23.2334 10.0327 24.5 10.0313C26.3836 10.0291 27.4181 10.6934 27.7569 12.1228C27.8309 12.4349 27.8588 12.9431 27.8595 13.9928C27.8606 15.5992 27.818 15.8493 27.4181 16.5804C27.2917 16.8114 27.1884 17.052 27.1885 17.115C27.1885 17.2092 27.4564 17.294 28.6839 17.5886C29.5064 17.7861 30.2588 17.988 30.356 18.0374C30.8597 18.2932 31.196 18.7628 31.2816 19.3296L31.3278 19.6358L31.5373 19.1011C31.9812 17.9682 32.1319 16.5138 31.9315 15.2982C31.4334 12.2771 29.2293 9.9076 26.2338 9.17259C25.4874 8.98937 24.0079 8.94268 23.2357 9.07788ZM23.5085 11.5708C23.0776 11.723 22.9055 11.8687 22.7445 12.2172C22.4862 12.7766 22.643 12.9602 23.0302 12.5518C23.4407 12.1191 23.8067 12.109 24.2745 12.5175C24.3976 12.625 24.6272 12.749 24.7848 12.7933C25.0651 12.8721 26.3373 12.9182 26.4041 12.852C26.4685 12.7884 26.3134 12.1498 26.1932 11.9833C26.1268 11.8914 25.9227 11.7412 25.7399 11.6495C25.4524 11.5054 25.3025 11.4803 24.6344 11.4644C24.0166 11.4498 23.7907 11.4711 23.5085 11.5708ZM23.3574 14.0502C23.228 14.1177 22.9937 14.1942 22.8365 14.2201L22.5509 14.2674V14.7172C22.5509 15.3589 22.6976 15.7844 23.0549 16.1797C23.4784 16.648 23.8667 16.8201 24.5 16.8201C25.1333 16.8201 25.5216 16.648 25.9451 16.1797C26.2981 15.7892 26.4491 15.3593 26.4491 14.7447V14.3224H25.8501C25.2016 14.3224 24.4025 14.195 23.998 14.0269C23.6844 13.8966 23.6492 13.8979 23.3574 14.0502ZM23.1222 18.1988C23.0048 18.3278 23.0048 18.3372 23.1224 18.4664C23.1895 18.5401 23.4133 18.6826 23.6197 18.783C24.3104 19.1191 25.392 18.9783 25.8508 18.4925L26.0052 18.3292L25.87 18.1948C25.7403 18.0658 25.7188 18.0646 25.3385 18.163C24.8359 18.2932 24.1678 18.2941 23.6707 18.1654C23.4578 18.1103 23.2747 18.0652 23.2638 18.0652C23.2528 18.0652 23.1891 18.1253 23.1222 18.1988ZM20.3944 19.0307C19.7813 19.1863 19.2445 19.3352 19.2015 19.3616C19.1468 19.3952 19.1232 19.7597 19.1232 20.5697V21.7297L19.4425 22.0103C20.9691 23.352 22.8333 24.013 24.836 23.9225C26.5419 23.8454 28.049 23.2638 29.3484 22.181L29.8432 21.7686L29.8615 20.5845C29.8798 19.4085 29.8789 19.4 29.7271 19.3355C29.5114 19.2439 27.6931 18.8004 27.5333 18.8004C27.4549 18.8004 27.3425 18.8944 27.2574 19.0313C26.7684 19.8182 25.5912 20.4043 24.5 20.4043C23.3761 20.4043 22.3674 19.8818 21.6428 18.9244L21.5092 18.7478L20.3944 19.0307ZM9.65654 19.34C9.03683 19.4612 8.36376 20.0346 8.12813 20.6422C8.00444 20.9609 8 21.2758 8 29.6676V38.3627L8.23525 38.8213C8.50795 39.353 8.94494 39.7291 9.47402 39.8875C9.97524 40.0375 39.0248 40.0375 39.526 39.8875C40.0551 39.7291 40.4921 39.353 40.7647 38.8213L41 38.3627V29.6342V20.9056L40.8415 20.5571C40.6536 20.1439 40.1493 19.6518 39.704 19.4472C39.3945 19.3051 39.3109 19.3011 36.1894 19.2814L32.9918 19.2611L32.9107 19.5303C32.7527 20.055 32.1432 21.1585 31.6593 21.7962C30.2633 23.636 28.2014 24.8884 25.9786 25.2466C25.1615 25.3782 23.8385 25.3782 23.0214 25.2466C20.5159 24.8428 18.2631 23.3298 16.8545 21.1046C16.6058 20.7116 16.1292 19.7166 16.063 19.452L16.017 19.2681L12.9831 19.2755C11.3144 19.2795 9.81741 19.3086 9.65654 19.34ZM34.4392 28.6671C34.6988 28.8478 34.7831 29.1573 34.7831 29.9282C34.7831 30.7879 34.691 31.0591 34.3508 31.2004C34.1477 31.2847 32.7893 31.2983 24.4955 31.2983C13.8324 31.2983 14.544 31.3285 14.3229 30.8653C14.1835 30.5731 14.1753 29.3212 14.3106 28.9991C14.5119 28.5201 13.6354 28.5581 24.5 28.5581C33.4354 28.5581 34.2963 28.5675 34.4392 28.6671ZM27.2306 33.8868C27.5761 34.1319 27.6749 34.4261 27.6483 35.1311C27.6294 35.6335 27.5985 35.7801 27.4754 35.9517C27.176 36.3689 27.1154 36.3777 24.5 36.3777C21.8884 36.3777 21.8233 36.3684 21.5279 35.9559C21.4119 35.7939 21.3755 35.6306 21.3535 35.1725C21.3165 34.402 21.4662 34.0307 21.8927 33.8359C22.1654 33.7112 22.3143 33.7048 24.6008 33.7208C26.9827 33.7374 27.0237 33.7401 27.2306 33.8868Z" fill="white"/>
</svg>
